HIERARCHY
ROOT Hips
{
	OFFSET -14.64140 90.27770 -84.91600
	CHANNELS 6 Xposition Yposition Zposition Zrotation Xrotation Yrotation
	JOINT Spine
	{
		OFFSET 0.00000 13.20850 -1.60436
		CHANNELS 3 Zrotation Xrotation Yrotation
		JOINT Spine1
		{
			OFFSET 0.00000 8.61716 0.00000
			CHANNELS 3 Zrotation Xrotation Yrotation
			JOINT Spine2
			{
				OFFSET 0.00000 8.61717 0.00000
				CHANNELS 3 Zrotation Xrotation Yrotation
				JOINT Spine3
				{
					OFFSET 0.00000 8.61717 0.00000
					CHANNELS 3 Zrotation Xrotation Yrotation
					JOINT Neck
					{
						OFFSET 0.00000 11.07920 1.10792
						CHANNELS 3 Zrotation Xrotation Yrotation
						JOINT Neck1
						{
							OFFSET 0.00000 7.08032 0.00000
							CHANNELS 3 Zrotation Xrotation Yrotation
							JOINT Head
							{
								OFFSET 0.00000 7.08031 0.00000
								CHANNELS 3 Zrotation Xrotation Yrotation
								End site
								{
									OFFSET 0.00000 0.00000 0.00000
								}
							}
						}
					}
					JOINT RightShoulder
					{
						OFFSET -0.01000 7.91373 5.19711
						CHANNELS 3 Zrotation Xrotation Yrotation
						JOINT RightArm
						{
							OFFSET -18.41580 0.00000 0.00000
							CHANNELS 3 Zrotation Xrotation Yrotation
							JOINT RightForeArm
							{
								OFFSET -29.11090 0.00000 0.00000
								CHANNELS 3 Zrotation Xrotation Yrotation
								JOINT RightHand
								{
									OFFSET -24.65040 0.00000 0.00000
									CHANNELS 3 Zrotation Xrotation Yrotation
									JOINT RightHandThumb1
									{
										OFFSET -5.35114 -0.85590 3.97906
										CHANNELS 3 Zrotation Xrotation Yrotation
										JOINT RightHandThumb2
										{
											OFFSET -4.52789 0.00000 0.00000
											CHANNELS 3 Zrotation Xrotation Yrotation
											JOINT RightHandThumb3
											{
												OFFSET -2.46976 0.00000 0.00000
												CHANNELS 3 Zrotation Xrotation Yrotation
												End site
												{
													OFFSET 0.00000 0.00000 0.00000
												}
											}
										}
									}
									JOINT RightHandIndex1
									{
										OFFSET -14.26970 0.00000 2.88139
										CHANNELS 3 Zrotation Xrotation Yrotation
										JOINT RightHandIndex2
										{
											OFFSET -5.48836 0.00000 0.00000
											CHANNELS 3 Zrotation Xrotation Yrotation
											JOINT RightHandIndex3
											{
												OFFSET -3.01859 0.00000 0.00000
												CHANNELS 3 Zrotation Xrotation Yrotation
												End site
												{
													OFFSET 0.00000 0.00000 0.00000
												}
											}
										}
									}
									JOINT RightHandMiddle1
									{
										OFFSET -14.26970 0.00000 -0.09147
										CHANNELS 3 Zrotation Xrotation Yrotation
										JOINT RightHandMiddle2
										{
											OFFSET -6.17441 0.00000 0.00000
											CHANNELS 3 Zrotation Xrotation Yrotation
											JOINT RightHandMiddle3
											{
												OFFSET -3.56743 0.00000 0.00000
												CHANNELS 3 Zrotation Xrotation Yrotation
												End site
												{
													OFFSET 0.00000 0.00000 0.00000
												}
											}
										}
									}
									JOINT RightHandRing1
									{
										OFFSET -12.69180 0.00000 -3.06433
										CHANNELS 3 Zrotation Xrotation Yrotation
										JOINT RightHandRing2
										{
											OFFSET -5.62556 0.00000 0.00000
											CHANNELS 3 Zrotation Xrotation Yrotation
											JOINT RightHandRing3
											{
												OFFSET -3.56744 0.00000 0.00000
												CHANNELS 3 Zrotation Xrotation Yrotation
												End site
												{
													OFFSET 0.00000 0.00000 0.00000
												}
											}
										}
									}
									JOINT RightHandPinky1
									{
										OFFSET -11.11390 0.00000 -6.03719
										CHANNELS 3 Zrotation Xrotation Yrotation
										JOINT RightHandPinky2
										{
											OFFSET -4.52789 0.00000 0.00000
											CHANNELS 3 Zrotation Xrotation Yrotation
											JOINT RightHandPinky3
											{
												OFFSET -2.46976 0.00000 0.00000
												CHANNELS 3 Zrotation Xrotation Yrotation
												End site
												{
													OFFSET 0.00000 0.00000 0.00000
												}
											}
										}
									}
								}
							}
						}
					}
					JOINT LeftShoulder
					{
						OFFSET 0.01000 7.91373 5.19711
						CHANNELS 3 Zrotation Xrotation Yrotation
						JOINT LeftArm
						{
							OFFSET 18.41580 0.00000 0.00000
							CHANNELS 3 Zrotation Xrotation Yrotation
							JOINT LeftForeArm
							{
								OFFSET 29.11090 0.00000 0.00000
								CHANNELS 3 Zrotation Xrotation Yrotation
								JOINT LeftHand
								{
									OFFSET 24.65040 0.00000 0.00000
									CHANNELS 3 Zrotation Xrotation Yrotation
									JOINT LeftHandThumb1
									{
										OFFSET 5.35114 -0.85590 3.97906
										CHANNELS 3 Zrotation Xrotation Yrotation
										JOINT LeftHandThumb2
										{
											OFFSET 4.52789 0.00000 0.00000
											CHANNELS 3 Zrotation Xrotation Yrotation
											JOINT LeftHandThumb3
											{
												OFFSET 2.46977 0.00000 0.00000
												CHANNELS 3 Zrotation Xrotation Yrotation
												End site
												{
													OFFSET 0.00000 0.00000 0.00000
												}
											}
										}
									}
									JOINT LeftHandIndex1
									{
										OFFSET 14.26970 0.00000 2.88139
										CHANNELS 3 Zrotation Xrotation Yrotation
										JOINT LeftHandIndex2
										{
											OFFSET 5.48836 0.00000 0.00000
											CHANNELS 3 Zrotation Xrotation Yrotation
											JOINT LeftHandIndex3
											{
												OFFSET 3.01859 0.00000 0.00000
												CHANNELS 3 Zrotation Xrotation Yrotation
												End site
												{
													OFFSET 0.00000 0.00000 0.00000
												}
											}
										}
									}
									JOINT LeftHandMiddle1
									{
										OFFSET 14.26970 0.00000 -0.09147
										CHANNELS 3 Zrotation Xrotation Yrotation
										JOINT LeftHandMiddle2
										{
											OFFSET 6.17440 0.00000 0.00000
											CHANNELS 3 Zrotation Xrotation Yrotation
											JOINT LeftHandMiddle3
											{
												OFFSET 3.56744 0.00000 0.00000
												CHANNELS 3 Zrotation Xrotation Yrotation
												End site
												{
													OFFSET 0.00000 0.00000 0.00000
												}
											}
										}
									}
									JOINT LeftHandRing1
									{
										OFFSET 12.69180 0.00000 -3.06433
										CHANNELS 3 Zrotation Xrotation Yrotation
										JOINT LeftHandRing2
										{
											OFFSET 5.62556 0.00000 0.00000
											CHANNELS 3 Zrotation Xrotation Yrotation
											JOINT LeftHandRing3
											{
												OFFSET 3.56744 0.00000 0.00000
												CHANNELS 3 Zrotation Xrotation Yrotation
												End site
												{
													OFFSET 0.00000 0.00000 0.00000
												}
											}
										}
									}
									JOINT LeftHandPinky1
									{
										OFFSET 11.11390 0.00000 -6.03719
										CHANNELS 3 Zrotation Xrotation Yrotation
										JOINT LeftHandPinky2
										{
											OFFSET 4.52789 0.00000 0.00000
											CHANNELS 3 Zrotation Xrotation Yrotation
											JOINT LeftHandPinky3
											{
												OFFSET 2.46976 0.00000 0.00000
												CHANNELS 3 Zrotation Xrotation Yrotation
												End site
												{
													OFFSET 0.00000 0.00000 0.00000
												}
											}
										}
									}
								}
							}
						}
					}
					JOINT pCube4
					{
						OFFSET 0.00000 10.91090 1.10792
						CHANNELS 3 Zrotation Xrotation Yrotation
						End site
						{
							OFFSET 0.00000 0.00000 0.00000
						}
					}
				}
			}
		}
	}
	JOINT RightUpLeg
	{
		OFFSET -9.98441 0.00000 0.00000
		CHANNELS 3 Zrotation Xrotation Yrotation
		JOINT RightLeg
		{
			OFFSET 0.00000 -42.11790 0.00000
			CHANNELS 3 Zrotation Xrotation Yrotation
			JOINT RightFoot
			{
				OFFSET 0.00000 -45.00020 -0.00001
				CHANNELS 3 Zrotation Xrotation Yrotation
				JOINT RightForeFoot
				{
					OFFSET 0.00000 -3.74820 0.00000
					CHANNELS 3 Zrotation Xrotation Yrotation
					JOINT RightToeBase
					{
						OFFSET 0.00000 0.06325 14.43120
						CHANNELS 3 Zrotation Xrotation Yrotation
						End site
						{
							OFFSET 0.00000 0.00000 0.00000
						}
					}
				}
			}
		}
	}
	JOINT LeftUpLeg
	{
		OFFSET 9.98441 0.00000 0.00000
		CHANNELS 3 Zrotation Xrotation Yrotation
		JOINT LeftLeg
		{
			OFFSET 0.00000 -42.11800 0.00000
			CHANNELS 3 Zrotation Xrotation Yrotation
			JOINT LeftFoot
			{
				OFFSET 0.00000 -45.00070 0.00000
				CHANNELS 3 Zrotation Xrotation Yrotation
				JOINT LeftForeFoot
				{
					OFFSET 0.00000 -3.74824 0.00000
					CHANNELS 3 Zrotation Xrotation Yrotation
					JOINT LeftToeBase
					{
						OFFSET 0.00000 0.06325 14.43110
						CHANNELS 3 Zrotation Xrotation Yrotation
						End site
						{
							OFFSET 0.00000 0.00000 0.00000
						}
					}
				}
			}
		}
	}
}
MOTION
Frames: 4
Frame Time: 0.050000
-0.04966689586954134 0.0005048289472206982 -0.003539288840929576 -0.019296779188252438 -0.03318541684266152 0.0059803515784127535 -1.3130422392492878 0.840212555354527 -1.252602517832289 -0.20354396899359428 3.7545573598343673 0.2591798208690683 -0.5748882693045121 -1.887786466678871 0.601074980035365 -1.0951188611867735 -1.2126942318094338 -0.37790650860076336 -0.4047542507312814 12.109883981058756 -0.564340145876112 0.6115342257367313 -1.4242955710150715 -1.8126523545145499 0.950549725867358 -17.30754997069524 -0.17828217600469046 0.07786202136189445 0.7014281727055316 -14.72267359939728 74.04556853555763 7.800525997909622 3.94314645488435 28.279213762777403 16.207236821644507 101.94885358440379 27.646224413319565 -0.2601948003812254 -5.181347333733328 4.486334524387702 -0.16066282161543605 -1.6278116839981112 0.0154419851037374 0.02496647602090433 -56.27197723121238 -0.025888842521423934 -0.010446384376060961 -56.27817716902895 -38.75128974508417 -0.026166675442344436 -0.020378422451527125 -0.002228989801957857 -0.02429648824895846 -0.003978858268946874 0.013128103104112422 0.008396519462541004 -0.0029936246842192722 -36.683067365647766 -0.033368794330220636 -0.04067235429955096 0.04317648757100148 0.007994128413001372 0.006160814236966297 0.027488734600453583 0.00938079566445048 -0.013740032596031522 -19.73831877653737 0.006120658275392405 -0.02329684577845728 0.030018028473484348 0.03136220897358745 0.005171946610702459 0.013960788503166902 0.007643204699148616 -0.0002617336832921385 24.060223620055247 0.028643573983934755 0.02759983971671133 28.898487392729155 0.031255090581354984 0.038558089364299095 28.862465966786477 0.005135247089621872 -0.026568750531614498 4.336937893818643 1.3822127125025645 13.91725779211081 -79.3541282255786 13.750009236895167 -10.20341876428781 -62.23100422038324 23.207588124574595 -108.79504788116793 -29.631657282718887 3.725808805797399 -1.5073730965434278 -0.4602978357908786 0.021026366524133908 -8.129883710493914 -0.005359975578375243 0.03337436681953647 44.53355474509638 0.021472647916588594 0.020872139360453644 44.60720198524774 12.485090622562993 0.04212698817400787 -0.0019425085798497148 -0.013757650928825728 -0.006730802977647532 -0.027270692690601797 -0.04356118865979565 0.0035410174934455024 -0.02687418014864365 11.149104043497434 -0.0345359931104902 0.012491473019045527 -0.04924895251489939 0.018052329695895722 -0.008998767837325823 -0.02610682496285568 -0.01905508948150794 -0.02188893249650216 4.747476727613374 0.027786389838449107 0.049616592436815814 -0.007117471340064795 0.04744440058372745 -0.02821345120352126 0.016172717446043556 -0.018514917215607427 -0.01569695292186622 -5.606867388746099 0.006373514214784483 0.03370020565500502 -6.766828390331933 -0.012437960206331129 -0.0069960737787972144 -6.7501118615190965 0.02178803641255735 -0.014660508694793791 -0.007051411204295098 -0.03131172231268823 -0.0326808563505228 8.014391560842379 3.53223355640771 -19.21030453130396 0.0096297845244088 10.411937410103894 -0.02320079519780947 -5.637892435341567 -15.685009855807122 3.225372624895505 -0.04726531259026642 -0.026323198394780128 -0.0068437573970219 -0.030019684752939996 4.6855924040811825 0.030244683180851002 12.451200505650561 -8.28200822340927 6.8557311786883295 -0.010840243532348056 46.349501595612 0.0025411326405344204 -4.3386170347100785 -14.704353637844967 -3.8150293484742996 -0.0016291460452089505 0.04448459871043461 9.578493788541132e-05 -0.04083284792647524 -10.69747231907943 -0.04980786916027366 
-0.04791994227071291 -0.03578123089452816 -0.002102534930093606 -0.0030239281761359343 0.03367908717626628 0.023548375773688415 -1.3925099284029236 0.9864046379046492 -1.2084071089830164 -0.2260900268407312 3.7678736161939588 0.23714614303464415 -0.5643757088259818 -1.8444162751007736 0.5972331533856833 -1.0937833204486234 -1.221053251905061 -0.39960160829018637 -0.4389674849557705 11.985687075215303 -0.4168953956788872 0.5869290541448329 -1.4277205225659557 -1.5041183545542038 0.9061622466455295 -17.282649004523783 -0.20016121356833372 0.3429061038838937 0.6919741883843125 -14.584883030016686 73.8298697833531 8.205314967653967 3.760711736280238 25.716290487599387 16.38042890859803 100.25460452485181 27.7799684373493 -0.2292547231346877 -4.90770325409116 4.568698188103722 -0.1090093525302889 -1.591246164903711 0.012494561983740894 0.016169471340587684 -56.27268892229426 -0.033309748023996465 -0.018296756496195915 -56.2598454325941 -38.75319813872271 -0.041020226518978437 -0.026085349988495526 0.03772741776518572 -0.022585600332820786 -0.0032409757394160814 -0.029936023765353263 0.011484581811631981 0.04068719761674102 -36.73998057028875 0.01111755018790986 0.007918611919474149 0.0023146619337696393 0.04943914031754566 0.02459292884585718 -0.030114184853881707 -0.03881648135629563 -0.003227667916811117 -19.805113795638526 0.004839610924613095 -0.041840277904271896 0.043303585619438305 -0.0053064605498005695 0.017871667047516394 0.0012713894590630093 0.007524588993571249 -0.01794899169497997 24.079328822589225 -0.01686242423109126 -0.04733445770366628 28.861159541535343 -0.015324499671934517 0.027608421054327162 28.895587824499945 0.030407728386013595 -0.03823570500592763 4.138162652652218 1.4160654670514394 13.795473268785932 -78.75138034176268 14.542160472784113 -10.042856298569014 -58.00349221737755 22.77076029054747 -106.02660893687232 -30.335675920344585 2.981955198968178 -0.9830418806972685 -0.500620644509893 0.11479700491777602 -8.096513111847683 -0.033025211492137135 -0.02161652585981647 44.564238530968204 -0.04019079046965787 -0.002687204884148118 44.52767545340813 12.474428140681377 -0.008351936221760232 -0.042066652496386255 0.009492866476738126 -0.03919501205412928 0.004430132644369991 0.004646828754655727 -0.04848112073275927 -0.04653083068657808 11.05609316381709 0.039485232225070784 0.036946052162898216 -0.002340476767346685 0.009422851779738587 -0.011321247971383714 0.001528613090344606 0.03467531629353979 0.018593260818701506 4.799576271439875 0.03432542495923006 -0.03615427403251873 0.046207847343966914 0.0035859244144602056 0.04865580037403953 0.04525147031534353 0.03936302040128692 -0.02740472719791666 -5.59717608333705 -0.04975247167167256 0.018081954049063095 -6.687613243330821 -0.03586601846514807 -0.034691056307738624 -6.72409605516082 -0.0473696883984941 -0.02604173702350236 0.04204382022628691 -0.0077804136266873426 0.04058595460726569 8.071831290332058 3.5011762683662 -19.216107760517552 -0.039415337485827456 10.40886185561257 0.009701330306781282 -5.623163377662707 -15.647433792175605 3.2079864060896752 -0.01585426798542161 -0.027502049197335666 -0.0064311291596617845 0.04467434158457448 4.711383061153888 -0.04392087805519226 12.421864031642635 -8.265032619916674 6.904506780429883 0.021471275973562083 46.368915499213394 0.04769883060137007 -4.324885232993844 -14.778083631718898 -3.796958583455964 -0.04648596744827459 -0.043509897763233524 0.02408288428230272 0.022515851564962178 -10.748065134646067 -0.021523300340305203 
-0.014378150796187546 0.04336343724350577 -0.021980988251527885 -0.004702189049137611 0.03923917178142844 -0.026800904221394934 -1.1217573963116008 1.2252225492871223 -1.2093873023517776 -0.15902772724982747 3.8257417667361278 0.28428022605995784 -0.5583316458345279 -1.784768991245903 0.5365000899700325 -1.1659793900800302 -1.1780011206213192 -0.3903622747204818 -0.5126387820445385 11.833224622768014 -0.28536796037067447 0.5304695859713178 -1.4790874430675818 -1.1946508142388248 0.8376204526588535 -17.26583638245 -0.16270512675283774 0.14295364553634332 0.7747104045729202 -14.662141841039514 73.93134633291358 9.277773769036727 3.093188198326783 22.887619474945957 16.324535906994054 97.33129459235364 27.72912078988664 -0.27838825889520413 -4.924653369742904 4.511003548473225 -0.09839790236650758 -1.604506267109948 -0.04922797953438103 0.03179955940941056 -56.26018560858837 -0.004720004276029961 -0.017082272620882175 -56.18885420734307 -38.80640568628796 0.046044659029612384 -0.024065215865900436 0.03396511242690981 -0.00098055970671797 -0.012338845924524796 0.016215869990442344 -0.02721200458664647 0.037871751220172806 -36.69294615241873 0.02283555088305987 0.022688516056457896 0.0016451789289842415 -0.03846758396086898 0.03817166723124113 -0.016050917135544896 0.03661030650811563 0.04127086569332723 -19.742791132461846 -0.028551441887236767 -0.02580450409442979 -0.041009157892098316 -0.014548670026600511 -0.006822765934263295 0.024831506122917704 -0.03424160628806403 -0.025624712211434964 24.065706094240717 0.00929177207423714 0.04422156766100712 28.87813064459475 -0.040465354694234776 0.043567640936935076 28.867944017633974 0.04739125221939885 -0.010467755521324291 4.294161996815871 1.397501470321646 13.763906418576243 -78.172903702874 15.927947468718232 -10.125037668100848 -53.56195741446784 21.941775137331962 -102.78840766093715 -30.943938203303468 1.2016020337335496 0.4164898343976946 -0.46879399545142836 0.08150612718294929 -8.139780703954829 -0.032340327934681404 -0.038655908312918486 44.61433864341741 -0.01510240849363228 -0.02389553226416208 44.60981650453533 12.477648180383332 0.018124615418927553 0.013816628904004782 0.008128993404076084 0.0009655740997171581 0.015732264580267392 -0.003944554199450816 0.04952042165639471 0.04913933849142346 11.137293340673358 0.009652769503581366 -0.029134805161605565 -0.020309680126797652 0.028905091053278403 0.032546486745348414 0.04600492920808526 0.011039868733963286 -0.006384992738706258 4.780508254458854 0.042069540102763425 0.02522183428098283 -0.02125098889534659 -0.02505427091563659 0.0020533237903663224 -0.03129047561343549 0.011850177406156069 -0.020575470325269976 -5.560613661794479 -0.04009750209535877 0.04848745175947254 -6.755914536524171 0.020179054570465753 -0.04947312479378818 -6.734313145689776 -0.0015642177343632494 -0.03826493278438784 -0.045117222212735786 -0.036885878094305595 0.012628250008869656 8.076256522988174 3.525516266966882 -19.24547359375 -0.03390039821286676 10.4132037220795 -0.0029944292450045165 -5.636641860188194 -15.687074446303283 3.2373372594392555 0.0002593218011771855 -0.0014702584108273568 0.025777057300531453 -0.025085067455249084 4.663951748382033 -0.013153228067215184 12.43918565987934 -8.230449716776095 6.887683487773114 0.0036169107850120125 46.39887408682974 0.04291623971874341 -4.34486269688427 -14.729846499887529 -3.80138963947613 -0.015597159801258266 0.037364503368332504 0.02256839594994391 -0.029164211394298745 -10.754550179796146 0.022892152886006486 
-0.004733895075350743 0.0438591753059181 -0.015564774720695965 -0.009199352876248353 0.036114671678038966 0.016981000749978516 -0.5533777274099306 1.408497856325051 -1.298630732631576 -0.23845408329297824 3.7834989587465975 0.3145955241479258 -0.5487061147573505 -1.7308759740811488 0.5010708413275832 -1.036573011316858 -1.0310052440686315 -0.4352736401050538 -0.5428284718532242 11.7175922174364 -0.20395315790853358 0.4804046972449729 -1.3100452616408615 -0.8178232015285533 0.7796318031970693 -17.194245637470434 -0.1580411638739541 -0.4820451035979155 0.9358972933258662 -14.824084749616176 74.5120636612815 10.596170274157158 2.1955607427205472 20.76879087622295 15.718566258480166 94.45432268667287 27.00510708555146 -0.27673268887368285 -5.0674343527657255 4.507348378187845 -0.14225541186315085 -1.5984880220023694 0.043176937435068855 -0.03449398669386463 -56.1936300782691 -0.026883337873307774 -0.003105835951223931 -56.24414286512913 -38.795360254082645 -0.015228171914382218 0.028901639384463242 0.020922723554916357 0.005022920051459503 0.046387855242856255 -0.003883308849576375 0.020146403663964398 -0.01229112238840353 -36.724901169465575 0.012405485164106344 -0.007719204301874951 0.01940366431603553 -0.019036504141803898 0.04306731425234672 -0.018967643508947276 -0.03913491914594454 0.01735074006176693 -19.716513164510324 -0.000806709243553086 -0.04295906629781001 -0.041103517108727644 0.04158233440631026 -0.008099878708571241 0.002052174262190901 -0.003960135724583391 0.027341766171717054 24.00586662380999 0.03497614257480624 -0.049258128605159546 28.880331758918572 0.014086097669427564 -0.04800066308842622 28.860664544400805 -0.02511857259235786 0.0360756858069436 4.78500011799279 1.484286228901311 13.807658078251672 -77.54973602172322 17.813195377409883 -10.273573327264767 -49.93845641103074 20.32891466466831 -99.88031872091126 -30.84949326787837 -1.2618757528340272 2.497743038458423 -0.4929471094555379 0.07458944418223891 -8.146139866019212 0.0297604108210415 0.026322293572571553 44.56012431414329 -0.023941882419985377 -0.023288010051757034 44.55642571809135 12.434419294107574 0.023487887691856384 0.009861770174983733 -0.017946444440237144 0.022034773314924965 -0.04080415407827754 -0.015492679900529046 -0.024894230139550937 -0.025213882406913652 11.114905114373181 0.014105977283954177 0.025908264491487417 -0.007022883806327374 -0.005365200540914411 -0.0468524151030548 0.01685303474875642 0.04754656737844743 -0.021212085949618584 4.739293603385287 0.029738093386467816 -0.0442282911950657 -0.043135276302481616 0.012910277692151315 0.010489126939456644 -0.0018411845077888483 0.007770075823838454 0.01675753474674475 -5.559200089919779 -0.02978488306073088 0.024750232955868666 -6.753161336014085 0.036762283785983334 0.0318200378783964 -6.690134485621976 -0.003488679192378036 0.015759470702795524 0.029675115790447522 0.027285433909966097 -0.041335426147422125 8.009348633993794 3.4509257240310194 -19.1900466247811 0.04312249511680615 10.419190271579662 0.02128826847053783 -5.606961262105587 -15.708787019001727 3.1465961583426174 -0.012359637453901366 -0.02089850947811301 -0.009737443674396565 -0.026953708434306535 4.712786246702161 0.009389334764793263 12.462571088673537 -8.271528158034247 6.851189913284741 0.049053433074254325 46.33777854752367 -0.003244841117387671 -4.336625635245244 -14.786662169307094 -3.860632496666961 -0.0326679655248429 -0.008478986649525393 0.009263988996961023 0.03683738680434047 -10.72362411835252 0.013169837771938525 
